<?xml version="1.0" standalone="no"?>
<!DOCTYPE svg PUBLIC "-//W3C//DTD SVG 20010904//EN"
 "http://www.w3.org/TR/2001/REC-SVG-20010904/DTD/svg10.dtd">
<svg version="1.0" xmlns="http://www.w3.org/2000/svg"
 width="260.000000pt" height="260.000000pt" viewBox="0 0 260.000000 260.000000"
 preserveAspectRatio="xMidYMid meet">
<metadata>
Created by potrace 1.11, written by Peter Selinger 2001-2013
</metadata>
<g transform="translate(0.000000,260.000000) scale(0.100000,-0.100000)"
fill="#000000" stroke="none">
<path d="M1397 2574 c-4 -4 -26 -7 -49 -8 -41 -1 -45 -4 -82 -59 -38 -58 -39
-60 -38 -150 1 -79 6 -105 35 -182 22 -57 40 -91 50 -93 12 -3 17 4 17 22 0
14 5 26 10 26 6 0 10 -11 10 -25 0 -14 5 -25 10 -25 7 0 10 -302 10 -885 l0
-885 -47 -1 c-27 -1 -51 -1 -54 -1 -15 2 -59 -49 -59 -68 0 -18 -6 -20 -65
-20 -60 0 -65 2 -66 23 0 12 -2 32 -3 45 -2 13 1 25 6 28 4 3 6 10 2 15 -3 6
-5 130 -4 277 0 147 1 274 1 282 -4 117 0 235 9 238 5 2 10 15 10 29 0 15 5
23 13 20 6 -2 11 -14 9 -26 -4 -40 29 -19 48 29 9 25 20 54 25 65 4 11 7 24 6
29 -1 4 4 15 11 23 7 9 13 50 13 107 2 88 1 93 -34 146 -44 68 -47 70 -94 68
-26 -1 -42 4 -51 18 -14 18 -15 18 -21 2 -5 -13 -18 -18 -49 -18 -39 0 -43 -3
-76 -52 -34 -52 -34 -55 -35 -163 -1 -98 2 -117 27 -179 15 -38 28 -75 28 -82
0 -8 8 -14 19 -14 13 0 18 7 17 22 0 11 4 23 9 25 27 9 32 -77 31 -529 l-1
-463 -48 -5 c-67 -8 -90 -34 -92 -105 -1 -31 3 -59 7 -62 5 -2 173 -6 374 -6
l364 -2 0 432 0 432 -72 3 -73 3 -2 597 c-1 351 3 600 8 604 5 3 9 16 9 30 0
15 6 24 15 24 8 0 14 -3 14 -7 -10 -65 23 -61 45 5 9 26 16 49 15 52 0 3 6 21
14 40 9 23 14 71 13 140 -1 102 -2 108 -34 157 -33 51 -34 52 -78 49 -25 -1
-47 1 -50 6 -6 10 -18 10 -27 2z"/>
</g>
</svg>
